{
  "source": "C:\\Users\\Peter\\Desktop\\stuff\\MIUN\\quantitative_research\\video_compression\\videos\\HEVC_CLASS_B\\Kimono_1920x1080_24.y4m",
  "output": "C:\\Users\\Peter\\Desktop\\stuff\\MIUN\\quantitative_research\\video_compression\\compressed_videos\\HEVC_CLASS_B\\av1\\3\\Kimono_1920x1080_24_av1.mkv",
  "codec": "av1",
  "ok": "Input #0, yuv4mpegpipe, from 'C:\\Users\\Peter\\Desktop\\stuff\\MIUN\\quantitative_research\\video_compression\\videos\\HEVC_CLASS_B\\Kimono_1920x1080_24.y4m':\n  Duration: 00:00:10.00, start: 0.000000, bitrate: 597198 kb/s\n  Stream #0:0: Video: rawvideo (I420 / 0x30323449), yuv420p(progressive), 1920x1080, 24 fps, 24 tbr, 24 tbn\n[out#0/matroska @ 000001ccd6e79080] Codec AVOption b:a (set bitrate (in bits/s)) has not been used for any stream. The most likely reason is either wrong type (e.g. a video option with no video streams) or that it is a private option of some decoder which was not actually used for any stream.\nStream mapping:\n  Stream #0:0 -> #0:0 (rawvideo (native) -> av1 (libsvtav1))\nPress [q] to stop, [?] for help\nSvt[info]: -------------------------------------------\nSvt[info]: SVT [version]:\tSVT-AV1 Encoder Lib v3.1.0-19-g6ecfe8ec\nSvt[info]: SVT [build]  :\tGCC 15.2.0\t 64 bit\nSvt[info]: LIB Build date: Aug 17 2025 11:37:13\nSvt[info]: -------------------------------------------\n[libsvtav1 @ 000001ccd6e7c0c0] Specified chroma sample location center is unsupported on the AV1 bit stream level. Usage of a container that allows passing this information - such as Matroska - is recommended.\nSvt[info]: Level of Parallelism: 5\nSvt[info]: Number of PPCS 93\nSvt[info]: [asm level on system : up to avx2]\nSvt[info]: [asm level selected : up to avx2]\nSvt[info]: -------------------------------------------\nSvt[info]: SVT [config]: main profile\ttier (auto)\tlevel (auto)\nSvt[info]: SVT [config]: width / height / fps numerator / fps denominator \t\t: 1920 / 1080 / 24 / 1\nSvt[info]: SVT [config]: bit-depth / color format \t\t\t\t\t: 8 / YUV420\nSvt[info]: SVT [config]: preset / tune / pred struct \t\t\t\t\t: 4 / PSNR / random access\nSvt[info]: SVT [config]: gop size / mini-gop size / key-frame type \t\t\t: 161 / 16 / key frame\nSvt[info]: SVT [config]: BRC mode / target bitrate (kbps)\t\t\t\t: VBR / 3000 \nSvt[info]: SVT [config]: AQ mode / Variance Boost \t\t\t\t\t: 2 / 0\nSvt[info]: SVT [config]: sharpness / luminance-based QP bias \t\t\t\t: 0 / 0\nSvt[info]: SVT [config]: QP scale compress strength \t\t\t\t\t: 0\nSvt[info]: -------------------------------------------\nOutput #0, matroska, to 'C:\\Users\\Peter\\Desktop\\stuff\\MIUN\\quantitative_research\\video_compression\\compressed_videos\\HEVC_CLASS_B\\av1\\3\\Kimono_1920x1080_24_av1.mkv':\n  Metadata:\n    encoder         : Lavf62.3.100\n  Stream #0:0: Video: av1 (AV01 / 0x31305641), yuv420p(tv, progressive), 1920x1080, q=2-31, 3000 kb/s, 24 fps, 1k tbn\n    Metadata:\n      encoder         : Lavc62.11.100 libsvtav1\n    Side data:\n      cpb: bitrate max/min/avg: 0/0/3000000 buffer size: 3000000 vbv_delay: N/A\nframe=    0 fps=0.0 q=0.0 size=       0KiB time=N/A bitrate=N/A speed=N/A elapsed=0:00:02.69    \nframe=    0 fps=0.0 q=0.0 size=       0KiB time=N/A bitrate=N/A speed=N/A elapsed=0:00:03.63    \nframe=    0 fps=0.0 q=0.0 size=       0KiB time=N/A bitrate=N/A speed=N/A elapsed=0:00:04.14    \nframe=    0 fps=0.0 q=0.0 size=       0KiB time=N/A bitrate=N/A speed=N/A elapsed=0:00:04.70    \nframe=    0 fps=0.0 q=0.0 size=       0KiB time=N/A bitrate=N/A speed=N/A elapsed=0:00:05.25    \nframe=    0 fps=0.0 q=0.0 size=       0KiB time=N/A bitrate=N/A speed=N/A elapsed=0:00:05.79    \nframe=    0 fps=0.0 q=0.0 size=       0KiB time=N/A bitrate=N/A speed=N/A elapsed=0:00:06.35    \nframe=    0 fps=0.0 q=0.0 size=       0KiB time=N/A bitrate=N/A speed=N/A elapsed=0:00:06.87    \nframe=    0 fps=0.0 q=0.0 size=       0KiB time=N/A bitrate=N/A speed=N/A elapsed=0:00:07.41    \nframe=    0 fps=0.0 q=0.0 size=       0KiB time=N/A bitrate=N/A speed=N/A elapsed=0:00:07.93    \nframe=    0 fps=0.0 q=0.0 size=       0KiB time=N/A bitrate=N/A speed=N/A elapsed=0:00:08.45    \nframe=    0 fps=0.0 q=0.0 size=       0KiB time=N/A bitrate=N/A speed=N/A elapsed=0:00:08.97    \nframe=    0 fps=0.0 q=0.0 size=       0KiB time=N/A bitrate=N/A speed=N/A elapsed=0:00:09.47    \nframe=    0 fps=0.0 q=0.0 size=       0KiB time=N/A bitrate=N/A speed=N/A elapsed=0:00:10.00    \nframe=    0 fps=0.0 q=0.0 size=       0KiB time=N/A bitrate=N/A speed=N/A elapsed=0:00:10.51    \nframe=    0 fps=0.0 q=0.0 size=       0KiB time=N/A bitrate=N/A speed=N/A elapsed=0:00:11.02    \nframe=    0 fps=0.0 q=0.0 size=       0KiB time=N/A bitrate=N/A speed=N/A elapsed=0:00:11.54    \nframe=    0 fps=0.0 q=0.0 size=       0KiB time=N/A bitrate=N/A speed=N/A elapsed=0:00:12.06    \nframe=    0 fps=0.0 q=0.0 size=       0KiB time=N/A bitrate=N/A speed=N/A elapsed=0:00:12.57    \nframe=    0 fps=0.0 q=0.0 size=       0KiB time=N/A bitrate=N/A speed=N/A elapsed=0:00:13.09    \nframe=    0 fps=0.0 q=0.0 size=       0KiB time=N/A bitrate=N/A speed=N/A elapsed=0:00:13.60    \nframe=    0 fps=0.0 q=0.0 size=       0KiB time=N/A bitrate=N/A speed=N/A elapsed=0:00:14.12    \nframe=    0 fps=0.0 q=0.0 size=       0KiB time=N/A bitrate=N/A speed=N/A elapsed=0:00:14.63    \nframe=    0 fps=0.0 q=0.0 size=       0KiB time=N/A bitrate=N/A speed=N/A elapsed=0:00:15.15    \nframe=    0 fps=0.0 q=0.0 size=       0KiB time=N/A bitrate=N/A speed=N/A elapsed=0:00:15.66    \nframe=    0 fps=0.0 q=0.0 size=       0KiB time=N/A bitrate=N/A speed=N/A elapsed=0:00:16.19    \nframe=    0 fps=0.0 q=0.0 size=       0KiB time=N/A bitrate=N/A speed=N/A elapsed=0:00:16.71    \nframe=    0 fps=0.0 q=0.0 size=       0KiB time=N/A bitrate=N/A speed=N/A elapsed=0:00:17.23    \nframe=    0 fps=0.0 q=0.0 size=       0KiB time=N/A bitrate=N/A speed=N/A elapsed=0:00:17.74    \nframe=    1 fps=0.1 q=16.0 size=       1KiB time=00:00:00.00 bitrate=N/A speed=   0x elapsed=0:00:18.26    \nframe=    1 fps=0.1 q=16.0 size=       1KiB time=00:00:00.00 bitrate=N/A speed=   0x elapsed=0:00:18.77    \nframe=    1 fps=0.1 q=16.0 size=       1KiB time=00:00:00.00 bitrate=N/A speed=   0x elapsed=0:00:19.29    \nframe=    1 fps=0.1 q=16.0 size=       1KiB time=00:00:00.00 bitrate=N/A speed=   0x elapsed=0:00:19.80    \nframe=    1 fps=0.0 q=16.0 size=       1KiB time=00:00:00.00 bitrate=N/A speed=   0x elapsed=0:00:20.32    \nframe=    1 fps=0.0 q=16.0 size=       1KiB time=00:00:00.00 bitrate=N/A speed=   0x elapsed=0:00:20.85    \nframe=    1 fps=0.0 q=16.0 size=       1KiB time=00:00:00.00 bitrate=N/A speed=   0x elapsed=0:00:21.37    \nframe=    1 fps=0.0 q=16.0 size=       1KiB time=00:00:00.00 bitrate=N/A speed=   0x elapsed=0:00:21.92    \nframe=    1 fps=0.0 q=16.0 size=       1KiB time=00:00:00.00 bitrate=N/A speed=   0x elapsed=0:00:22.44    \nframe=    1 fps=0.0 q=16.0 size=       1KiB time=00:00:00.00 bitrate=N/A speed=   0x elapsed=0:00:22.96    \nframe=    1 fps=0.0 q=16.0 size=       1KiB time=00:00:00.00 bitrate=N/A speed=   0x elapsed=0:00:23.48    \nframe=    1 fps=0.0 q=16.0 size=       1KiB time=00:00:00.00 bitrate=N/A speed=   0x elapsed=0:00:24.01    \nframe=    1 fps=0.0 q=16.0 size=       1KiB time=00:00:00.00 bitrate=N/A speed=   0x elapsed=0:00:24.52    \nframe=    1 fps=0.0 q=16.0 size=       1KiB time=00:00:00.00 bitrate=N/A speed=   0x elapsed=0:00:25.04    \nframe=    1 fps=0.0 q=16.0 size=       1KiB time=00:00:00.00 bitrate=N/A speed=   0x elapsed=0:00:25.56    \nframe=    1 fps=0.0 q=16.0 size=       1KiB time=00:00:00.00 bitrate=N/A speed=   0x elapsed=0:00:26.09    \nframe=    1 fps=0.0 q=16.0 size=       1KiB time=00:00:00.00 bitrate=N/A speed=   0x elapsed=0:00:26.61    \nframe=    1 fps=0.0 q=16.0 size=       1KiB time=00:00:00.00 bitrate=N/A speed=   0x elapsed=0:00:27.14    \nframe=    1 fps=0.0 q=16.0 size=       1KiB time=00:00:00.00 bitrate=N/A speed=   0x elapsed=0:00:27.66    \nframe=    1 fps=0.0 q=16.0 size=       1KiB time=00:00:00.00 bitrate=N/A speed=   0x elapsed=0:00:28.18    \nframe=    1 fps=0.0 q=16.0 size=       1KiB time=00:00:00.00 bitrate=N/A speed=   0x elapsed=0:00:28.70    \nframe=    2 fps=0.1 q=36.0 size=       1KiB time=00:00:00.04 bitrate= 107.9kbits/s speed=0.00143x elapsed=0:00:29.21    \nframe=    3 fps=0.1 q=33.0 size=       1KiB time=00:00:00.08 bitrate=  54.0kbits/s speed=0.0028x elapsed=0:00:29.75    \nframe=    4 fps=0.1 q=36.0 size=       1KiB time=00:00:00.12 bitrate=  36.0kbits/s speed=0.00413x elapsed=0:00:30.27    \nframe=    4 fps=0.1 q=36.0 size=       1KiB time=00:00:00.12 bitrate=  36.0kbits/s speed=0.00406x elapsed=0:00:30.79    \nframe=    4 fps=0.1 q=36.0 size=       1KiB time=00:00:00.12 bitrate=  36.0kbits/s speed=0.00399x elapsed=0:00:31.30    \nframe=    4 fps=0.1 q=36.0 size=       1KiB time=00:00:00.12 bitrate=  36.0kbits/s speed=0.00393x elapsed=0:00:31.82    \nframe=    5 fps=0.2 q=31.0 size=       1KiB time=00:00:00.16 bitrate=  27.0kbits/s speed=0.00515x elapsed=0:00:32.34    \nframe=    5 fps=0.2 q=31.0 size=       1KiB time=00:00:00.16 bitrate=  27.0kbits/s speed=0.00507x elapsed=0:00:32.86    \nframe=    5 fps=0.1 q=31.0 size=       1KiB time=00:00:00.16 bitrate=  27.0kbits/s speed=0.00499x elapsed=0:00:33.36    \nframe=    6 fps=0.2 q=36.0 size=       1KiB time=00:00:00.20 bitrate=  21.6kbits/s speed=0.00615x elapsed=0:00:33.89    \nframe=    6 fps=0.2 q=36.0 size=       1KiB time=00:00:00.20 bitrate=  21.6kbits/s speed=0.00605x elapsed=0:00:34.41    \nframe=    7 fps=0.2 q=31.0 size=       1KiB time=00:00:00.25 bitrate=  18.0kbits/s speed=0.00716x elapsed=0:00:34.93    \nframe=    7 fps=0.2 q=31.0 size=       1KiB time=00:00:00.25 bitrate=  18.0kbits/s speed=0.00705x elapsed=0:00:35.45    \nframe=    7 fps=0.2 q=31.0 size=       1KiB time=00:00:00.25 bitrate=  18.0kbits/s speed=0.00695x elapsed=0:00:35.97    \nframe=    7 fps=0.2 q=31.0 size=       1KiB time=00:00:00.25 bitrate=  18.0kbits/s speed=0.00685x elapsed=0:00:36.50    \nframe=    8 fps=0.2 q=33.0 size=       1KiB time=00:00:00.29 bitrate=  15.4kbits/s speed=0.00788x elapsed=0:00:37.02    \nframe=    8 fps=0.2 q=33.0 size=       1KiB time=00:00:00.29 bitrate=  15.4kbits/s speed=0.00777x elapsed=0:00:37.54    \nframe=    8 fps=0.2 q=33.0 size=       1KiB time=00:00:00.29 bitrate=  15.4kbits/s speed=0.00766x elapsed=0:00:38.05    \nframe=    8 fps=0.2 q=33.0 size=       1KiB time=00:00:00.29 bitrate=  15.4kbits/s speed=0.00756x elapsed=0:00:38.58    \nframe=    9 fps=0.2 q=28.0 size=       1KiB time=00:00:00.33 bitrate=  13.5kbits/s speed=0.00852x elapsed=0:00:39.10    \nframe=    9 fps=0.2 q=28.0 size=       1KiB time=00:00:00.33 bitrate=  13.5kbits/s speed=0.00841x elapsed=0:00:39.62    \nframe=    9 fps=0.2 q=28.0 size=       1KiB time=00:00:00.33 bitrate=  13.5kbits/s speed=0.0083x elapsed=0:00:40.15    \nframe=   10 fps=0.2 q=31.0 size=       1KiB time=00:00:00.37 bitrate=  12.0kbits/s speed=0.00922x elapsed=0:00:40.67    \nframe=   10 fps=0.2 q=31.0 size=       1KiB time=00:00:00.37 bitrate=  12.0kbits/s speed=0.0091x elapsed=0:00:41.20    \nframe=   11 fps=0.3 q=31.0 size=       1KiB time=00:00:00.41 bitrate=  10.8kbits/s speed=0.00999x elapsed=0:00:41.71    \nframe=   11 fps=0.3 q=31.0 size=       1KiB time=00:00:00.41 bitrate=  10.8kbits/s speed=0.00986x elapsed=0:00:42.23    \nframe=   11 fps=0.3 q=31.0 size=       1KiB time=00:00:00.41 bitrate=  10.8kbits/s speed=0.00974x elapsed=0:00:42.76    \nframe=   12 fps=0.3 q=30.0 size=       1KiB time=00:00:00.45 bitrate=   9.8kbits/s speed=0.0106x elapsed=0:00:43.28    \nframe=   13 fps=0.3 q=29.0 size=       1KiB time=00:00:00.50 bitrate=   9.0kbits/s speed=0.0114x elapsed=0:00:43.81    \nframe=   14 fps=0.3 q=30.0 size=       1KiB time=00:00:00.54 bitrate=   8.3kbits/s speed=0.0122x elapsed=0:00:44.32    \nframe=   15 fps=0.3 q=31.0 size=       1KiB time=00:00:00.58 bitrate=   7.7kbits/s speed=0.013x elapsed=0:00:44.86    \nframe=   16 fps=0.4 q=29.0 size=       1KiB time=00:00:00.62 bitrate=   7.2kbits/s speed=0.0138x elapsed=0:00:45.38    \nframe=   16 fps=0.3 q=29.0 size=       1KiB time=00:00:00.62 bitrate=   7.2kbits/s speed=0.0136x elapsed=0:00:45.90    \nframe=   16 fps=0.3 q=29.0 size=       1KiB time=00:00:00.62 bitrate=   7.2kbits/s speed=0.0135x elapsed=0:00:46.42    \nframe=   17 fps=0.4 q=20.0 size=       1KiB time=00:00:00.66 bitrate=   6.7kbits/s speed=0.0142x elapsed=0:00:46.95    \nframe=   17 fps=0.4 q=20.0 size=       1KiB time=00:00:00.66 bitrate=   6.7kbits/s speed=0.014x elapsed=0:00:47.47    \nframe=   18 fps=0.4 q=32.0 size=       1KiB time=00:00:00.70 bitrate=   6.3kbits/s speed=0.0148x elapsed=0:00:47.99    \nframe=   19 fps=0.4 q=31.0 size=       1KiB time=00:00:00.75 bitrate=   6.0kbits/s speed=0.0155x elapsed=0:00:48.51    \nframe=   19 fps=0.4 q=31.0 size=       1KiB time=00:00:00.75 bitrate=   6.0kbits/s speed=0.0153x elapsed=0:00:49.02    \nframe=   19 fps=0.4 q=31.0 size=       1KiB time=00:00:00.75 bitrate=   6.0kbits/s speed=0.0151x elapsed=0:00:49.54    \nframe=   20 fps=0.4 q=32.0 size=       1KiB time=00:00:00.79 bitrate=   5.7kbits/s speed=0.0158x elapsed=0:00:50.06    \nframe=   20 fps=0.4 q=32.0 size=       1KiB time=00:00:00.79 bitrate=   5.7kbits/s speed=0.0156x elapsed=0:00:50.58    \nframe=   21 fps=0.4 q=30.0 size=       1KiB time=00:00:00.83 bitrate=   5.4kbits/s speed=0.0163x elapsed=0:00:51.10    \nframe=   21 fps=0.4 q=30.0 size=       1KiB time=00:00:00.83 bitrate=   5.4kbits/s speed=0.0161x elapsed=0:00:51.62    \nframe=   22 fps=0.4 q=31.0 size=       1KiB time=00:00:00.87 bitrate=   5.1kbits/s speed=0.0168x elapsed=0:00:52.14    \nframe=   22 fps=0.4 q=31.0 size=       1KiB time=00:00:00.87 bitrate=   5.1kbits/s speed=0.0166x elapsed=0:00:52.66    \nframe=   22 fps=0.4 q=31.0 size=       1KiB time=00:00:00.87 bitrate=   5.1kbits/s speed=0.0165x elapsed=0:00:53.18    \nframe=   23 fps=0.4 q=31.0 size=       1KiB time=00:00:00.91 bitrate=   4.9kbits/s speed=0.0171x elapsed=0:00:53.70    \nframe=   23 fps=0.4 q=31.0 size=       1KiB time=00:00:00.91 bitrate=   4.9kbits/s speed=0.0169x elapsed=0:00:54.22    \nframe=   23 fps=0.4 q=31.0 size=       1KiB time=00:00:00.91 bitrate=   4.9kbits/s speed=0.0167x elapsed=0:00:54.76    \nframe=   23 fps=0.4 q=31.0 size=       1KiB time=00:00:00.91 bitrate=   4.9kbits/s speed=0.0166x elapsed=0:00:55.29    \nframe=   24 fps=0.4 q=31.0 size=       1KiB time=00:00:00.95 bitrate=   4.7kbits/s speed=0.0172x elapsed=0:00:55.83    \nframe=   25 fps=0.4 q=27.0 size=       1KiB time=00:00:01.00 bitrate=   4.5kbits/s speed=0.0177x elapsed=0:00:56.35    \nframe=   26 fps=0.5 q=30.0 size=       1KiB time=00:00:01.04 bitrate=   4.3kbits/s speed=0.0183x elapsed=0:00:56.86    \nframe=   26 fps=0.5 q=30.0 size=       1KiB time=00:00:01.04 bitrate=   4.3kbits/s speed=0.0182x elapsed=0:00:57.38    \nframe=   27 fps=0.5 q=31.0 size=       1KiB time=00:00:01.08 bitrate=   4.2kbits/s speed=0.0187x elapsed=0:00:57.91    \nframe=   27 fps=0.5 q=31.0 size=       1KiB time=00:00:01.08 bitrate=   4.2kbits/s speed=0.0185x elapsed=0:00:58.45    \nframe=   28 fps=0.5 q=29.0 size=       1KiB time=00:00:01.12 bitrate=   4.0kbits/s speed=0.019x elapsed=0:00:59.15    \nframe=   29 fps=0.5 q=28.0 size=       1KiB time=00:00:01.16 bitrate=   3.9kbits/s speed=0.0196x elapsed=0:00:59.67    \nframe=   31 fps=0.5 q=31.0 size=       1KiB time=00:00:01.25 bitrate=   3.6kbits/s speed=0.0208x elapsed=0:01:00.18    \nframe=   32 fps=0.5 q=29.0 size=       1KiB time=00:00:01.29 bitrate=   3.5kbits/s speed=0.0213x elapsed=0:01:00.69    \nframe=   33 fps=0.5 q=18.0 size=       1KiB time=00:00:01.33 bitrate=   3.4kbits/s speed=0.0218x elapsed=0:01:01.21    \nframe=   34 fps=0.6 q=32.0 size=       1KiB time=00:00:01.37 bitrate=   3.3kbits/s speed=0.0223x elapsed=0:01:01.73    \nframe=   34 fps=0.5 q=32.0 size=       1KiB time=00:00:01.37 bitrate=   3.3kbits/s speed=0.0221x elapsed=0:01:02.24    \nframe=   35 fps=0.6 q=31.0 size=       1KiB time=00:00:01.41 bitrate=   3.2kbits/s speed=0.0226x elapsed=0:01:02.76    \nframe=   36 fps=0.6 q=32.0 size=       1KiB time=00:00:01.45 bitrate=   3.1kbits/s speed=0.023x elapsed=0:01:03.28    \nframe=   37 fps=0.6 q=30.0 size=       1KiB time=00:00:01.50 bitrate=   3.0kbits/s speed=0.0235x elapsed=0:01:03.78    \nframe=   38 fps=0.6 q=32.0 size=       1KiB time=00:00:01.54 bitrate=   2.9kbits/s speed=0.024x elapsed=0:01:04.31    \nframe=   38 fps=0.6 q=32.0 size=       1KiB time=00:00:01.54 bitrate=   2.9kbits/s speed=0.0238x elapsed=0:01:04.82    \nframe=   38 fps=0.6 q=32.0 size=       1KiB time=00:00:01.54 bitrate=   2.9kbits/s speed=0.0236x elapsed=0:01:05.34    \nframe=   39 fps=0.6 q=31.0 size=       1KiB time=00:00:01.58 bitrate=   2.8kbits/s speed=0.024x elapsed=0:01:05.85    \nframe=   39 fps=0.6 q=31.0 size=       1KiB time=00:00:01.58 bitrate=   2.8kbits/s speed=0.0239x elapsed=0:01:06.37    \nframe=   41 fps=0.6 q=27.0 size=       1KiB time=00:00:01.66 bitrate=   2.7kbits/s speed=0.0249x elapsed=0:01:06.89    \nframe=   42 fps=0.6 q=32.0 size=       1KiB time=00:00:01.70 bitrate=   2.6kbits/s speed=0.0253x elapsed=0:01:07.40    \nframe=   42 fps=0.6 q=32.0 size=       1KiB time=00:00:01.70 bitrate=   2.6kbits/s speed=0.0252x elapsed=0:01:07.92    \nframe=   43 fps=0.6 q=31.0 size=       1KiB time=00:00:01.75 bitrate=   2.6kbits/s speed=0.0256x elapsed=0:01:08.43    \nframe=   44 fps=0.6 q=31.0 size=       1KiB time=00:00:01.79 bitrate=   2.5kbits/s speed=0.026x elapsed=0:01:08.94    \nframe=   45 fps=0.6 q=28.0 size=       1KiB time=00:00:01.83 bitrate=   2.5kbits/s speed=0.0264x elapsed=0:01:09.46    \nframe=   46 fps=0.7 q=33.0 size=       1KiB time=00:00:01.87 bitrate=   2.4kbits/s speed=0.0268x elapsed=0:01:09.97    \nframe=   47 fps=0.7 q=31.0 size=       1KiB time=00:00:01.91 bitrate=   2.3kbits/s speed=0.0272x elapsed=0:01:10.50    \nframe=   48 fps=0.7 q=28.0 size=       1KiB time=00:00:01.95 bitrate=   2.3kbits/s speed=0.0276x elapsed=0:01:11.01    \nframe=   49 fps=0.7 q=16.0 size=       1KiB time=00:00:02.00 bitrate=   2.2kbits/s speed=0.028x elapsed=0:01:11.52    \nframe=   50 fps=0.7 q=34.0 size=       1KiB time=00:00:02.04 bitrate=   2.2kbits/s speed=0.0283x elapsed=0:01:12.04    \nframe=   51 fps=0.7 q=33.0 size=       1KiB time=00:00:02.08 bitrate=   2.2kbits/s speed=0.0287x elapsed=0:01:12.55    \nframe=   51 fps=0.7 q=33.0 size=       1KiB time=00:00:02.08 bitrate=   2.2kbits/s speed=0.0285x elapsed=0:01:13.08    \nframe=   52 fps=0.7 q=34.0 size=       1KiB time=00:00:02.12 bitrate=   2.1kbits/s speed=0.0289x elapsed=0:01:13.58    \nframe=   53 fps=0.7 q=31.0 size=       1KiB time=00:00:02.16 bitrate=   2.1kbits/s speed=0.0292x elapsed=0:01:14.11    \nframe=   54 fps=0.7 q=34.0 size=       1KiB time=00:00:02.20 bitrate=   2.0kbits/s speed=0.0296x elapsed=0:01:14.61    \nframe=   54 fps=0.7 q=34.0 size=       1KiB time=00:00:02.20 bitrate=   2.0kbits/s speed=0.0294x elapsed=0:01:15.14    \nframe=   54 fps=0.7 q=34.0 size=       1KiB time=00:00:02.20 bitrate=   2.0kbits/s speed=0.0292x elapsed=0:01:15.65    \nframe=   55 fps=0.7 q=33.0 size=       1KiB time=00:00:02.25 bitrate=   2.0kbits/s speed=0.0295x elapsed=0:01:16.16    \nframe=   55 fps=0.7 q=33.0 size=       1KiB time=00:00:02.25 bitrate=   2.0kbits/s speed=0.0293x elapsed=0:01:16.69    \nframe=   56 fps=0.7 q=34.0 size=       1KiB time=00:00:02.29 bitrate=   2.0kbits/s speed=0.0297x elapsed=0:01:17.20    \nframe=   58 fps=0.7 q=34.0 size=       1KiB time=00:00:02.37 bitrate=   1.9kbits/s speed=0.0306x elapsed=0:01:17.71    \nframe=   58 fps=0.7 q=34.0 size=       1KiB time=00:00:02.37 bitrate=   1.9kbits/s speed=0.0304x elapsed=0:01:18.22    \nframe=   59 fps=0.7 q=32.0 size=       1KiB time=00:00:02.41 bitrate=   1.9kbits/s speed=0.0307x elapsed=0:01:18.74    \nframe=   60 fps=0.8 q=34.0 size=       1KiB time=00:00:02.45 bitrate=   1.8kbits/s speed=0.031x elapsed=0:01:19.26    \nframe=   60 fps=0.8 q=34.0 size=       1KiB time=00:00:02.45 bitrate=   1.8kbits/s speed=0.0308x elapsed=0:01:19.77    \nframe=   61 fps=0.8 q=28.0 size=       1KiB time=00:00:02.50 bitrate=   1.8kbits/s speed=0.0311x elapsed=0:01:20.29    \nframe=   64 fps=0.8 q=33.0 size=       1KiB time=00:00:02.62 bitrate=   1.7kbits/s speed=0.0325x elapsed=0:01:20.81    \nframe=   65 fps=0.8 q=16.0 size=       1KiB time=00:00:02.66 bitrate=   1.7kbits/s speed=0.0328x elapsed=0:01:21.32    \nframe=   66 fps=0.8 q=34.0 size=       1KiB time=00:00:02.70 bitrate=   1.7kbits/s speed=0.0331x elapsed=0:01:21.84    \nframe=   67 fps=0.8 q=33.0 size=       1KiB time=00:00:02.75 bitrate=   1.6kbits/s speed=0.0334x elapsed=0:01:22.35    \nframe=   67 fps=0.8 q=33.0 size=       1KiB time=00:00:02.75 bitrate=   1.6kbits/s speed=0.0332x elapsed=0:01:22.86    \nframe=   69 fps=0.8 q=31.0 size=       1KiB time=00:00:02.83 bitrate=   1.6kbits/s speed=0.034x elapsed=0:01:23.39    \nframe=   69 fps=0.8 q=31.0 size=       1KiB time=00:00:02.83 bitrate=   1.6kbits/s speed=0.0338x elapsed=0:01:23.90    \nframe=   70 fps=0.8 q=32.0 size=       1KiB time=00:00:02.87 bitrate=   1.6kbits/s speed=0.0341x elapsed=0:01:24.41    \nframe=   70 fps=0.8 q=32.0 size=       1KiB time=00:00:02.87 bitrate=   1.6kbits/s speed=0.0339x elapsed=0:01:24.93    \nframe=   70 fps=0.8 q=32.0 size=       1KiB time=00:00:02.87 bitrate=   1.6kbits/s speed=0.0336x elapsed=0:01:25.45    \nframe=   71 fps=0.8 q=29.0 size=       1KiB time=00:00:02.91 bitrate=   1.5kbits/s speed=0.0339x elapsed=0:01:25.96    \nframe=   71 fps=0.8 q=29.0 size=       1KiB time=00:00:02.91 bitrate=   1.5kbits/s speed=0.0337x elapsed=0:01:26.48    \nframe=   72 fps=0.8 q=32.0 size=       1KiB time=00:00:02.95 bitrate=   1.5kbits/s speed=0.034x elapsed=0:01:27.00    \nframe=   74 fps=0.8 q=34.0 size=       1KiB time=00:00:03.04 bitrate=   1.5kbits/s speed=0.0348x elapsed=0:01:27.51    \nframe=   75 fps=0.9 q=32.0 size=       1KiB time=00:00:03.08 bitrate=   1.5kbits/s speed=0.035x elapsed=0:01:28.03    \nframe=   75 fps=0.8 q=32.0 size=       1KiB time=00:00:03.08 bitrate=   1.5kbits/s speed=0.0348x elapsed=0:01:28.54    \nframe=   76 fps=0.9 q=34.0 size=       1KiB time=00:00:03.12 bitrate=   1.4kbits/s speed=0.0351x elapsed=0:01:29.06    \nframe=   76 fps=0.8 q=34.0 size=       1KiB time=00:00:03.12 bitrate=   1.4kbits/s speed=0.0349x elapsed=0:01:29.57    \nframe=   79 fps=0.9 q=31.0 size=       1KiB time=00:00:03.25 bitrate=   1.4kbits/s speed=0.0361x elapsed=0:01:30.08    \nframe=   80 fps=0.9 q=33.0 size=       1KiB time=00:00:03.29 bitrate=   1.4kbits/s speed=0.0363x elapsed=0:01:30.60    \nframe=   81 fps=0.9 q=18.0 size=       1KiB time=00:00:03.33 bitrate=   1.3kbits/s speed=0.0366x elapsed=0:01:31.12    \nframe=   83 fps=0.9 q=33.0 size=       1KiB time=00:00:03.41 bitrate=   1.3kbits/s speed=0.0373x elapsed=0:01:31.64    \nframe=   83 fps=0.9 q=33.0 size=       1KiB time=00:00:03.41 bitrate=   1.3kbits/s speed=0.0371x elapsed=0:01:32.15    \nframe=   84 fps=0.9 q=34.0 size=       1KiB time=00:00:03.45 bitrate=   1.3kbits/s speed=0.0373x elapsed=0:01:32.67    \nframe=   85 fps=0.9 q=31.0 size=       1KiB time=00:00:03.50 bitrate=   1.3kbits/s speed=0.0376x elapsed=0:01:33.18    \nframe=   86 fps=0.9 q=34.0 size=       1KiB time=00:00:03.54 bitrate=   1.3kbits/s speed=0.0378x elapsed=0:01:33.69    \nframe=   87 fps=0.9 q=33.0 size=       1KiB time=00:00:03.58 bitrate=   1.3kbits/s speed=0.038x elapsed=0:01:34.22    \nframe=   87 fps=0.9 q=33.0 size=       1KiB time=00:00:03.58 bitrate=   1.3kbits/s speed=0.0378x elapsed=0:01:34.73    \nframe=   89 fps=0.9 q=27.0 size=       1KiB time=00:00:03.66 bitrate=   1.2kbits/s speed=0.0385x elapsed=0:01:35.24    \nframe=   90 fps=0.9 q=35.0 size=       1KiB time=00:00:03.70 bitrate=   1.2kbits/s speed=0.0387x elapsed=0:01:35.77    \nframe=   91 fps=0.9 q=32.0 size=       1KiB time=00:00:03.75 bitrate=   1.2kbits/s speed=0.0389x elapsed=0:01:36.27    \nframe=   91 fps=0.9 q=32.0 size=       1KiB time=00:00:03.75 bitrate=   1.2kbits/s speed=0.0387x elapsed=0:01:36.79    \nframe=   93 fps=1.0 q=28.0 size=       1KiB time=00:00:03.83 bitrate=   1.2kbits/s speed=0.0394x elapsed=0:01:37.31    \nframe=   95 fps=1.0 q=31.0 size=       1KiB time=00:00:03.91 bitrate=   1.1kbits/s speed=0.04x elapsed=0:01:37.83    \nframe=   96 fps=1.0 q=33.0 size=       1KiB time=00:00:03.95 bitrate=   1.1kbits/s speed=0.0402x elapsed=0:01:38.34    \nframe=   98 fps=1.0 q=35.0 size=       1KiB time=00:00:04.04 bitrate=   1.1kbits/s speed=0.0409x elapsed=0:01:38.85    \nframe=   99 fps=1.0 q=33.0 size=       1KiB time=00:00:04.08 bitrate=   1.1kbits/s speed=0.0411x elapsed=0:01:39.37    \nframe=   99 fps=1.0 q=33.0 size=       1KiB time=00:00:04.08 bitrate=   1.1kbits/s speed=0.0408x elapsed=0:01:40.01    \nframe=  100 fps=1.0 q=35.0 size=       1KiB time=00:00:04.12 bitrate=   1.1kbits/s speed=0.041x elapsed=0:01:40.54    \nframe=  101 fps=1.0 q=31.0 size=       1KiB time=00:00:04.16 bitrate=   1.1kbits/s speed=0.0412x elapsed=0:01:41.09    \nframe=  102 fps=1.0 q=35.0 size=       1KiB time=00:00:04.20 bitrate=   1.1kbits/s speed=0.0414x elapsed=0:01:41.60    \nframe=  102 fps=1.0 q=35.0 size=       1KiB time=00:00:04.20 bitrate=   1.1kbits/s speed=0.0412x elapsed=0:01:42.12    \nframe=  102 fps=1.0 q=35.0 size=       1KiB time=00:00:04.20 bitrate=   1.1kbits/s speed=0.041x elapsed=0:01:42.63    \nframe=  103 fps=1.0 q=33.0 size=       1KiB time=00:00:04.25 bitrate=   1.1kbits/s speed=0.0412x elapsed=0:01:43.16    \nframe=  104 fps=1.0 q=35.0 size=       1KiB time=00:00:04.29 bitrate=   1.0kbits/s speed=0.0414x elapsed=0:01:43.68    \nframe=  105 fps=1.0 q=27.0 size=       1KiB time=00:00:04.33 bitrate=   1.0kbits/s speed=0.0416x elapsed=0:01:44.20    \nframe=  107 fps=1.0 q=32.0 size=       1KiB time=00:00:04.41 bitrate=   1.0kbits/s speed=0.0422x elapsed=0:01:44.73    \nframe=  108 fps=1.0 q=35.0 size=       1KiB time=00:00:04.45 bitrate=   1.0kbits/s speed=0.0424x elapsed=0:01:45.24    \nframe=  109 fps=1.0 q=28.0 size=       1KiB time=00:00:04.50 bitrate=   1.0kbits/s speed=0.0425x elapsed=0:01:45.77    \nframe=  111 fps=1.0 q=32.0 size=       1KiB time=00:00:04.58 bitrate=   1.0kbits/s speed=0.0431x elapsed=0:01:46.30    \nframe=  113 fps=1.1 q=18.0 size=       1KiB time=00:00:04.66 bitrate=   1.0kbits/s speed=0.0437x elapsed=0:01:46.83    \nframe=  115 fps=1.1 q=35.0 size=       1KiB time=00:00:04.75 bitrate=   0.9kbits/s speed=0.0442x elapsed=0:01:47.36    \nframe=  116 fps=1.1 q=37.0 size=       1KiB time=00:00:04.79 bitrate=   0.9kbits/s speed=0.0444x elapsed=0:01:47.89    \nframe=  118 fps=1.1 q=37.0 size=       1KiB time=00:00:04.87 bitrate=   0.9kbits/s speed=0.045x elapsed=0:01:48.41    \nframe=  118 fps=1.1 q=37.0 size=       1KiB time=00:00:04.87 bitrate=   0.9kbits/s speed=0.0447x elapsed=0:01:48.99    \nframe=  119 fps=1.1 q=30.0 size=       1KiB time=00:00:04.91 bitrate=   0.9kbits/s speed=0.0449x elapsed=0:01:49.53    \nframe=  120 fps=1.1 q=37.0 size=       1KiB time=00:00:04.95 bitrate=   0.9kbits/s speed=0.0451x elapsed=0:01:50.04    \nframe=  122 fps=1.1 q=37.0 size=       1KiB time=00:00:05.04 bitrate=   0.9kbits/s speed=0.0456x elapsed=0:01:50.57    \nframe=  123 fps=1.1 q=33.0 size=    2048KiB time=00:00:05.08 bitrate=3300.4kbits/s speed=0.0457x elapsed=0:01:51.11    \nframe=  125 fps=1.1 q=29.0 size=    2048KiB time=00:00:05.12 bitrate=3273.6kbits/s speed=0.0459x elapsed=0:01:51.65    \nframe=  125 fps=1.1 q=29.0 size=    2048KiB time=00:00:05.16 bitrate=3247.2kbits/s speed=0.046x elapsed=0:01:52.33    \nframe=  128 fps=1.1 q=37.0 size=    2048KiB time=00:00:05.29 bitrate=3170.5kbits/s speed=0.0469x elapsed=0:01:52.91    \nframe=  129 fps=1.1 q=18.0 size=    2048KiB time=00:00:05.33 bitrate=3145.7kbits/s speed=0.047x elapsed=0:01:53.43    \nframe=  131 fps=1.1 q=35.0 size=    2048KiB time=00:00:05.41 bitrate=3097.3kbits/s speed=0.0475x elapsed=0:01:53.97    \nframe=  133 fps=1.2 q=33.0 size=    2048KiB time=00:00:05.45 bitrate=3073.7kbits/s speed=0.0477x elapsed=0:01:54.54    \nframe=  134 fps=1.2 q=37.0 size=    2048KiB time=00:00:05.54 bitrate=3027.5kbits/s speed=0.0481x elapsed=0:01:55.12    \nframe=  135 fps=1.2 q=32.0 size=    2048KiB time=00:00:05.58 bitrate=3004.9kbits/s speed=0.0483x elapsed=0:01:55.70    \nframe=  136 fps=1.2 q=37.0 size=    2048KiB time=00:00:05.62 bitrate=2982.6kbits/s speed=0.0484x elapsed=0:01:56.24    \nframe=  139 fps=1.2 q=34.0 size=    2048KiB time=00:00:05.75 bitrate=2917.8kbits/s speed=0.0492x elapsed=0:01:56.76    \nframe=  140 fps=1.2 q=36.0 size=    2048KiB time=00:00:05.79 bitrate=2896.8kbits/s speed=0.0494x elapsed=0:01:57.31    \nframe=  142 fps=1.2 q=35.0 size=    2048KiB time=00:00:05.87 bitrate=2855.7kbits/s speed=0.0499x elapsed=0:01:57.84    \nframe=  145 fps=1.2 q=14.0 size=    2048KiB time=00:00:06.00 bitrate=2796.2kbits/s speed=0.0507x elapsed=0:01:58.38    \nframe=  149 fps=1.3 q=33.0 size=    2048KiB time=00:00:06.16 bitrate=2720.6kbits/s speed=0.0518x elapsed=0:01:58.96    \nframe=  149 fps=1.2 q=33.0 size=    2048KiB time=00:00:06.16 bitrate=2720.6kbits/s speed=0.0516x elapsed=0:01:59.53    \nframe=  153 fps=1.3 q=28.0 size=    2048KiB time=00:00:06.33 bitrate=2649.0kbits/s speed=0.0527x elapsed=0:02:00.11    \nframe=  153 fps=1.3 q=28.0 size=    2048KiB time=00:00:06.33 bitrate=2649.0kbits/s speed=0.0525x elapsed=0:02:00.71    \nframe=  153 fps=1.3 q=28.0 size=    2048KiB time=00:00:06.33 bitrate=2649.0kbits/s speed=0.0522x elapsed=0:02:01.28    \nframe=  153 fps=1.3 q=28.0 size=    2048KiB time=00:00:06.33 bitrate=2649.0kbits/s speed=0.052x elapsed=0:02:01.84    \nframe=  157 fps=1.3 q=31.0 size=    2048KiB time=00:00:06.50 bitrate=2581.1kbits/s speed=0.0531x elapsed=0:02:02.41    \nframe=  157 fps=1.3 q=31.0 size=    2048KiB time=00:00:06.50 bitrate=2581.1kbits/s speed=0.0529x elapsed=0:02:02.98    \nframe=  159 fps=1.3 q=33.0 size=    2048KiB time=00:00:06.58 bitrate=2548.4kbits/s speed=0.0533x elapsed=0:02:03.51    \nframe=  170 fps=1.4 q=27.0 size=    2304KiB time=00:00:07.04 bitrate=2680.4kbits/s speed=0.0568x elapsed=0:02:04.07    \nframe=  170 fps=1.4 q=27.0 size=    2304KiB time=00:00:07.04 bitrate=2680.4kbits/s speed=0.0565x elapsed=0:02:04.64    \nframe=  174 fps=1.4 q=31.0 size=    2304KiB time=00:00:07.12 bitrate=2649.0kbits/s speed=0.0569x elapsed=0:02:05.15    \nframe=  174 fps=1.4 q=31.0 size=    2304KiB time=00:00:07.20 bitrate=2618.4kbits/s speed=0.0573x elapsed=0:02:05.71    \nframe=  176 fps=1.4 q=29.0 size=    2304KiB time=00:00:07.29 bitrate=2588.5kbits/s speed=0.0578x elapsed=0:02:06.24    \nframe=  178 fps=1.4 q=17.0 size=    2304KiB time=00:00:07.37 bitrate=2559.2kbits/s speed=0.0582x elapsed=0:02:06.78    \nframe=  182 fps=1.4 q=29.0 size=    2304KiB time=00:00:07.54 bitrate=2502.7kbits/s speed=0.0592x elapsed=0:02:07.30    \nframe=  182 fps=1.4 q=29.0 size=    2304KiB time=00:00:07.54 bitrate=2502.7kbits/s speed=0.059x elapsed=0:02:07.84    \nframe=  184 fps=1.4 q=32.0 size=    2304KiB time=00:00:07.62 bitrate=2475.3kbits/s speed=0.0594x elapsed=0:02:08.36    \nframe=  186 fps=1.4 q=24.0 size=    2304KiB time=00:00:07.70 bitrate=2448.6kbits/s speed=0.0598x elapsed=0:02:08.90    \nframe=  186 fps=1.4 q=24.0 size=    2304KiB time=00:00:07.70 bitrate=2448.6kbits/s speed=0.0596x elapsed=0:02:09.42    \nframe=  188 fps=1.4 q=32.0 size=    2304KiB time=00:00:07.79 bitrate=2422.4kbits/s speed=0.06x elapsed=0:02:09.95    \nframe=  188 fps=1.4 q=32.0 size=    2304KiB time=00:00:07.79 bitrate=2422.4kbits/s speed=0.0597x elapsed=0:02:10.49    \nframe=  190 fps=1.5 q=29.0 size=    2304KiB time=00:00:07.87 bitrate=2396.7kbits/s speed=0.0601x elapsed=0:02:11.02    \nframe=  190 fps=1.4 q=29.0 size=    2304KiB time=00:00:07.87 bitrate=2396.7kbits/s speed=0.0599x elapsed=0:02:11.56    \nframe=  194 fps=1.5 q=13.0 size=    2304KiB time=00:00:08.04 bitrate=2347.1kbits/s speed=0.0609x elapsed=0:02:12.08    \nframe=  194 fps=1.5 q=13.0 size=    2304KiB time=00:00:08.04 bitrate=2347.1kbits/s speed=0.0606x elapsed=0:02:12.59    \nframe=  194 fps=1.5 q=13.0 size=    2304KiB time=00:00:08.04 bitrate=2347.1kbits/s speed=0.0604x elapsed=0:02:13.10    \nframe=  196 fps=1.5 q=31.0 size=    2304KiB time=00:00:08.12 bitrate=2323.0kbits/s speed=0.0608x elapsed=0:02:13.61    \nframe=  198 fps=1.5 q=28.0 size=    2304KiB time=00:00:08.20 bitrate=2299.4kbits/s speed=0.0612x elapsed=0:02:14.16    \nframe=  198 fps=1.5 q=28.0 size=    2304KiB time=00:00:08.20 bitrate=2299.4kbits/s speed=0.0609x elapsed=0:02:14.68    \nframe=  200 fps=1.5 q=31.0 size=    2304KiB time=00:00:08.29 bitrate=2276.3kbits/s speed=0.0613x elapsed=0:02:15.21    \nframe=  202 fps=1.5 q=23.0 size=    2304KiB time=00:00:08.37 bitrate=2253.7kbits/s speed=0.0617x elapsed=0:02:15.73    \nframe=  202 fps=1.5 q=23.0 size=    2304KiB time=00:00:08.37 bitrate=2253.7kbits/s speed=0.0615x elapsed=0:02:16.27    \nframe=  202 fps=1.5 q=23.0 size=    2304KiB time=00:00:08.37 bitrate=2253.7kbits/s speed=0.0612x elapsed=0:02:16.79    \nframe=  202 fps=1.5 q=23.0 size=    2304KiB time=00:00:08.37 bitrate=2253.7kbits/s speed=0.061x elapsed=0:02:17.32    \nframe=  204 fps=1.5 q=31.0 size=    2304KiB time=00:00:08.45 bitrate=2231.5kbits/s speed=0.0614x elapsed=0:02:17.84    \nframe=  206 fps=1.5 q=28.0 size=    2304KiB time=00:00:08.54 bitrate=2209.7kbits/s speed=0.0617x elapsed=0:02:18.37    \nframe=  206 fps=1.5 q=28.0 size=    2304KiB time=00:00:08.54 bitrate=2209.7kbits/s speed=0.0615x elapsed=0:02:18.90    \nframe=  208 fps=1.5 q=28.0 size=    2304KiB time=00:00:08.62 bitrate=2188.3kbits/s speed=0.0618x elapsed=0:02:19.46    \nframe=  208 fps=1.5 q=28.0 size=    2304KiB time=00:00:08.62 bitrate=2188.3kbits/s speed=0.0616x elapsed=0:02:19.98    \nframe=  210 fps=1.5 q=12.0 size=    2304KiB time=00:00:08.70 bitrate=2167.4kbits/s speed=0.062x elapsed=0:02:20.50    \nframe=  212 fps=1.5 q=31.0 size=    2304KiB time=00:00:08.79 bitrate=2146.8kbits/s speed=0.0623x elapsed=0:02:21.02    \nframe=  214 fps=1.5 q=28.0 size=    2304KiB time=00:00:08.87 bitrate=2126.7kbits/s speed=0.0627x elapsed=0:02:21.58    \nframe=  214 fps=1.5 q=28.0 size=    2304KiB time=00:00:08.87 bitrate=2126.7kbits/s speed=0.0625x elapsed=0:02:22.10    \nframe=  218 fps=1.5 q=23.0 size=    2304KiB time=00:00:09.04 bitrate=2087.5kbits/s speed=0.0634x elapsed=0:02:22.61    \nframe=  218 fps=1.5 q=23.0 size=    2304KiB time=00:00:09.04 bitrate=2087.5kbits/s speed=0.0631x elapsed=0:02:23.18    \nframe=  220 fps=1.5 q=32.0 size=    2304KiB time=00:00:09.12 bitrate=2068.4kbits/s speed=0.0635x elapsed=0:02:23.73    \nframe=  222 fps=1.5 q=31.0 size=    2304KiB time=00:00:09.20 bitrate=2049.7kbits/s speed=0.0638x elapsed=0:02:24.26    \nframe=  224 fps=1.5 q=32.0 size=    2304KiB time=00:00:09.29 bitrate=2031.3kbits/s speed=0.0641x elapsed=0:02:24.86    \n[out#0/matroska @ 000001ccd6e79080] video:3196KiB audio:0KiB subtitle:0KiB other streams:0KiB global headers:0KiB muxing overhead: 0.054511%\nframe=  240 fps=1.7 q=27.0 Lsize=    3198KiB time=00:00:09.95 bitrate=2630.6kbits/s speed=0.0686x elapsed=0:02:25.12    \n",
  "seconds": 147.7610719203949,
  "probe_out": {}
}